{
    "asset" : {
        "generator" : "Khronos glTF Blender I/O v1.7.33",
        "version" : "2.0"
    },
    "scene" : 0,
    "scenes" : [
        {
            "name" : "Scene",
            "nodes" : [
                0
            ]
        }
    ],
    "nodes" : [
        {
            "mesh" : 0,
            "name" : "Lamp",
            "rotation" : [
                0,
                1,
                0,
                7.549790126404332e-08
            ],
            "scale" : [
                0.02539999969303608,
                0.02539999969303608,
                0.02539999969303608
            ],
            "translation" : [
                -0.0021895209793001413,
                0.6251564025878906,
                0.10956904292106628
            ]
        }
    ],
    "materials" : [
        {
            "doubleSided" : true,
            "name" : "Lampada",
            "pbrMetallicRoughness" : {
                "baseColorFactor" : [
                    0.9404101371765137,
                    1,
                    0.8829339146614075,
                    1
                ],
                "roughnessFactor" : 0
            }
        }
    ],
    "meshes" : [
        {
            "name" : "Mesh",
            "primitives" : [
                {
                    "attributes" : {
                        "POSITION" : 0,
                        "NORMAL" : 1,
                        "TEXCOORD_0" : 2
                    },
                    "indices" : 3,
                    "material" : 0
                }
            ]
        }
    ],
    "accessors" : [
        {
            "bufferView" : 0,
            "componentType" : 5126,
            "count" : 6244,
            "max" : [
                22.553977966308594,
                48.22667694091797,
                52.59916305541992
            ],
            "min" : [
                -22.72637939453125,
                -24.572532653808594,
                -66.14466857910156
            ],
            "type" : "VEC3"
        },
        {
            "bufferView" : 1,
            "componentType" : 5126,
            "count" : 6244,
            "type" : "VEC3"
        },
        {
            "bufferView" : 2,
            "componentType" : 5126,
            "count" : 6244,
            "type" : "VEC2"
        },
        {
            "bufferView" : 3,
            "componentType" : 5123,
            "count" : 29886,
            "type" : "SCALAR"
        }
    ],
    "bufferViews" : [
        {
            "buffer" : 0,
            "byteLength" : 74928,
            "byteOffset" : 0
        },
        {
            "buffer" : 0,
            "byteLength" : 74928,
            "byteOffset" : 74928
        },
        {
            "buffer" : 0,
            "byteLength" : 49952,
            "byteOffset" : 149856
        },
        {
            "buffer" : 0,
            "byteLength" : 59772,
            "byteOffset" : 199808
        }
    ],
    "buffers" : [
        {
            "byteLength" : 259580,
            "uri" : "data:application/octet-stream;base64,"
        }
    ]
}
