{
  "asset": {
    "generator": "Khronos glTF Blender I/O v1.7.33",
    "version": "2.0"
  },
  "scene": 0,
  "scenes": [
    {
      "name": "Scene",
      "nodes": [0]
    }
  ],
  "nodes": [
    {
      "mesh": 0,
      "name": "blank hoodie.002",
      "rotation": [0.7071068286895752, 0, 0, 0.7071067094802856],
      "scale": [0.00953767728060484, 0.00953767728060484, 0.00953767728060484],
      "translation": [-0.0363011360168457, -0.32858073711395264, 0]
    }
  ],
  "materials": [
    {
      "doubleSided": true,
      "name": "body",
      "pbrMetallicRoughness": {
        "baseColorFactor": [
          0.800000011920929, 0.800000011920929, 0.800000011920929, 1
        ],
        "metallicFactor": 0,
        "roughnessFactor": 0.5
      }
    }
  ],
  "meshes": [
    {
      "name": "blank hoodie.002",
      "primitives": [
        {
          "attributes": {
            "POSITION": 0,
            "NORMAL": 1,
            "TEXCOORD_0": 2
          },
          "indices": 3,
          "material": 0
        }
      ]
    }
  ],
  "accessors": [
    {
      "bufferView": 0,
      "componentType": 5126,
      "count": 39238,
      "max": [577.409912109375, 158.43698120117188, 371.53900146484375],
      "min": [-577.3359375, -149.1034698486328, -564.335693359375],
      "type": "VEC3"
    },
    {
      "bufferView": 1,
      "componentType": 5126,
      "count": 39238,
      "type": "VEC3"
    },
    {
      "bufferView": 2,
      "componentType": 5126,
      "count": 39238,
      "type": "VEC2"
    },
    {
      "bufferView": 3,
      "componentType": 5123,
      "count": 212796,
      "type": "SCALAR"
    }
  ],
  "bufferViews": [
    {
      "buffer": 0,
      "byteLength": 470856,
      "byteOffset": 0
    },
    {
      "buffer": 0,
      "byteLength": 470856,
      "byteOffset": 470856
    },
    {
      "buffer": 0,
      "byteLength": 313904,
      "byteOffset": 941712
    },
    {
      "buffer": 0,
      "byteLength": 425592,
      "byteOffset": 1255616
    }
  ],
  "buffers": [
    {
      "byteLength": 1681208,
      "uri": "data:application/octet-stream;base64,"
    }
  ]
}
